<svg id="图层_1" data-name="图层 1" xmlns="http://www.w3.org/2000/svg" viewBox="0 0 200 200"><defs><style>.cls-1{fill:#65e7ff;}</style></defs><title>补充图标2021.10.07</title><path class="cls-1" d="M68.14,46.43V44.29c0-5.36,1.07-8.57,2.14-10.71s3.22-4.29,6.43-6.43C78.86,26.07,82.07,25,87.43,25h25.71c5.36,0,8.57,1.07,10.71,2.14s4.29,3.21,6.43,6.43c1.07,2.14,2.14,5.36,2.14,10.71v2.14h37.5a5.06,5.06,0,0,1,5.36,5.36,5.06,5.06,0,0,1-5.36,5.36H30.64a5.06,5.06,0,0,1-5.36-5.36,5.06,5.06,0,0,1,5.36-5.36Zm10.71,0h42.86V44.29c0-3.21,0-4.29-1.07-5.36,0-1.07-1.07-1.07-2.14-2.14,0-1.07-2.14-1.07-5.36-1.07H87.43c-3.21,0-4.29,0-5.36,1.07-1.07,0-1.07,1.07-2.14,2.14-1.07,0-1.07,2.14-1.07,5.36ZM57.43,73.21v69.64c0,8.57,0,11.79,1.07,13.93a14.8,14.8,0,0,0,3.22,4.29c3.21,3.21,5.36,3.21,12.86,3.21h52.5c7.5,0,9.64,0,11.79-2.14,2.14-1.07,3.22-2.14,3.22-4.29,1.07-3.21,1.07-5.36,1.07-15V73.21a5.36,5.36,0,0,1,10.72,0V145c0,10.71-1.07,13.93-3.22,18.21a16.72,16.72,0,0,1-8.57,8.57c-3.22,2.14-6.43,3.22-16.07,3.22H74.57c-9.64,0-12.86-1.07-16.07-3.22a32.6,32.6,0,0,1-8.57-8.57c-2.14-4.29-3.21-8.57-3.21-18.21V73.21a5.06,5.06,0,0,1,5.36-5.36,5.06,5.06,0,0,1,5.36,5.36Zm26.79,5.36a5.06,5.06,0,0,1,5.36,5.36V137.5a5.36,5.36,0,0,1-10.71,0V83.93a5.06,5.06,0,0,1,5.36-5.36Zm32.14,0a5.06,5.06,0,0,1,5.36,5.36V137.5a5.36,5.36,0,0,1-10.71,0V83.93a5.06,5.06,0,0,1,5.36-5.36Zm0,0"/></svg>