<svg id="图层_1" data-name="图层 1" xmlns="http://www.w3.org/2000/svg" viewBox="0 0 200 200"><defs><style>.cls-1{fill:#65e7ff;}</style></defs><title>补充图标2021.10.07</title><path class="cls-1" d="M166.49,64.21h-.73a21.9,21.9,0,0,0-21.7-19.14H79.34l-2.92-4.58a8.49,8.49,0,0,0-7.18-3.93H54.83A29.87,29.87,0,0,0,25,66.39v67.22a29.87,29.87,0,0,0,29.83,29.83h90.34A29.87,29.87,0,0,0,175,133.61V72.72a8.51,8.51,0,0,0-8.51-8.51ZM144.06,53.54a13.4,13.4,0,0,1,13.11,10.67H91.56l-6.8-10.67Zm22.47,80a21.38,21.38,0,0,1-21.36,21.36H54.83a21.38,21.38,0,0,1-21.36-21.36V102.51h133v31.06Zm0-39.53h-133V66.37A21.38,21.38,0,0,1,54.85,45H69.27l0,0L84.44,68.77l2.5,3.91h4.64l75,0V94Zm0,0"/></svg>