<svg id="图层_1" data-name="图层 1" xmlns="http://www.w3.org/2000/svg" viewBox="0 0 200 200"><defs><style>.cls-1{fill:#65e7ff;}</style></defs><title>补充图标2021.10.07</title><path class="cls-1" d="M99.49,29.32A74.16,74.16,0,0,0,63,38.78l2.48-7.41A5.62,5.62,0,0,0,54.81,27.8L47.47,49.72A6.45,6.45,0,0,0,52.07,58l20.38,4.9a5.75,5.75,0,0,0,1.32.16A5.63,5.63,0,0,0,75.09,52l-8.8-2.12A63,63,0,0,1,99.5,40.57,63.7,63.7,0,1,1,36.67,93.49a5.63,5.63,0,0,0-11.09-1.9,75.86,75.86,0,0,0-1.08,12.73,75,75,0,1,0,75-75Zm0,0"/><path class="cls-1" d="M104.22,117.72H75a5.63,5.63,0,1,1,0-11.25h26.19v-31a5.63,5.63,0,0,1,11.25,0v34a8.17,8.17,0,0,1-8.17,8.16Zm0,0"/></svg>