<svg id="图层_1" data-name="图层 1" xmlns="http://www.w3.org/2000/svg" viewBox="0 0 200 200"><defs><style>.cls-1{fill:#65e7ff;stroke:#65e7ff;stroke-miterlimit:10;stroke-width:3px;}</style></defs><title>补充图标2021.10.07</title><path class="cls-1" d="M100.53,175a75,75,0,1,1,53-22,74.49,74.49,0,0,1-53,22Zm0-143.09A68.11,68.11,0,1,0,168.64,100a68.18,68.18,0,0,0-68.11-68.11Zm0,0"/><path class="cls-1" d="M100.14,144.36a5.5,5.5,0,0,1-5.5-5.5V90a5.5,5.5,0,1,1,11,0v48.84a5.5,5.5,0,0,1-5.5,5.5Zm0,0"/><path class="cls-1" d="M92.77,63.87a7.57,7.57,0,1,0,3.78-6.55,7.57,7.57,0,0,0-3.78,6.55Zm0,0"/></svg>