<svg id="图层_1" data-name="图层 1" xmlns="http://www.w3.org/2000/svg" viewBox="0 0 200 200"><defs><style>.cls-1{fill:#65e7ff;}</style></defs><title>补充图标2021.10.07</title><path class="cls-1" d="M100.9,176.92A74.66,74.66,0,1,1,130.24,171a75.43,75.43,0,0,1-29.35,5.92Zm0-141.47a65.88,65.88,0,1,0,25.72,5.19,66.09,66.09,0,0,0-25.72-5.19Zm0,0"/><path class="cls-1" d="M54.89,101.68a7.47,7.47,0,1,0,3.73-6.47,7.47,7.47,0,0,0-3.73,6.47Zm0,0"/><path class="cls-1" d="M93.59,101.68a7.47,7.47,0,1,0,3.73-6.47,7.47,7.47,0,0,0-3.73,6.47Zm0,0"/><path class="cls-1" d="M132.3,101.68A7.47,7.47,0,1,0,136,95.22a7.47,7.47,0,0,0-3.73,6.47Zm0,0"/></svg>