<svg id="图层_1" data-name="图层 1" xmlns="http://www.w3.org/2000/svg" viewBox="0 0 200 200"><defs><style>.cls-1{fill:#65e7ff;}</style></defs><title>补充图标2021.10</title><path class="cls-1" d="M26.76,70.45l71.59,39a3.41,3.41,0,0,0,3.26,0l71.59-39a3.41,3.41,0,0,0,0-6l-71.59-39a3.42,3.42,0,0,0-3.26,0l-71.59,39a3.41,3.41,0,0,0,0,6ZM100,32.29l64.47,35.17L100,102.62,35.51,67.46Zm0,0"/><path class="cls-1" d="M169.94,97l-70,38.16L30,97a3.41,3.41,0,1,0-3.26,6l71.59,39a3.41,3.41,0,0,0,3.26,0l71.59-39a3.41,3.41,0,1,0-3.26-6Zm0,0"/><path class="cls-1" d="M169.94,129.54l-70,38.16L30,129.54a3.41,3.41,0,1,0-3.26,6l71.59,39a3.41,3.41,0,0,0,3.26,0l71.59-39a3.41,3.41,0,1,0-3.26-6Zm0,0"/></svg>