<?xml version="1.0" encoding="utf-8"?>
<!-- Generator: Adobe Illustrator 24.3.0, SVG Export Plug-In . SVG Version: 6.00 Build 0)  -->
<svg version="1.1" id="图层_1" xmlns="http://www.w3.org/2000/svg" xmlns:xlink="http://www.w3.org/1999/xlink" x="0px" y="0px"
	 viewBox="0 0 1920 1920" style="enable-background:new 0 0 1920 1920;" xml:space="preserve">
<style type="text/css">
	.st0{fill:#65E7FF;}
</style>
<path class="st0" d="M1920,1052.9c0-13.7-13.7-27.4-27.4-41.1l-425.1-192V298.6c-1-14.7-12.7-26.4-27.4-27.4l-439-205.7
	c-13.7,0-27.4-13.7-41.1-13.7c-15.1-1.8-30.2,3.2-41.1,13.7L493.7,271.2c-27.4,0-41.1,27.4-41.1,41.1v507.5L27.4,1025.5
	c-13.7,0-27.4,13.7-27.4,41.1v507.1c0,27.4,13.7,68.6,54.9,82.3l411.4,205.7c13.7,0,27.4,13.7,41.1,13.7
	c15.1,1.8,30.2-3.2,41.1-13.7L960,1642.6l411.4,205.7c13.7,0,27.4,13.7,41.1,13.7c15.1,1.8,30.2-3.2,41.1-13.7l411.4-205.7
	c32.6-14.6,54-46.6,54.9-82.3L1920,1052.9z M1371.4,819.8L1248,874.6l-246.9,109.7V559.2l370.3-177.9V819.8z M960,147.8l356.6,164.6
	L960,476.9L603.4,312.4L960,147.8z M918.9,559.2v438.6l-370.3-178V381.3L918.9,559.2z M466.3,1752.4L96,1573.7v-438.6l370.3,178.3
	V1752.4z M507.4,1231.3l-356.5-164.6L507.4,902l137.1,68.6l205.7,109.7L507.4,1231.3z M548.5,1313.5l370.4-178.4v425.1l-370.3,178.4
	L548.5,1313.5z M1371.4,1738.6l-370.3-178.3v-425.2l370.3,178.3V1738.6z M1426.3,1231.3l-356.6-164.6l233.2-109.3l123.4-54.9
	l356.6,164.6L1426.3,1231.3z M1467.4,1738.6v-438.9l370.3-178.3v425.1L1467.4,1738.6z"/>
</svg>
