<svg id="图层_1" data-name="图层 1" xmlns="http://www.w3.org/2000/svg" viewBox="0 0 200 200"><defs><style>.cls-1{fill:#65e7ff;}</style></defs><title>补充图标2021.10</title><path class="cls-1" d="M117.36,173a4.86,4.86,0,0,1-3.15-1.41,3.35,3.35,0,0,1-1.15-2.76V35.43h.13v-.26h.26V30.64l1.61-3,0,0,2.77-.6,1.06.24,46.83,46.31A3.93,3.93,0,0,1,167,76.44a4.93,4.93,0,0,1-1.34,3.18,4.41,4.41,0,0,1-3,1.12,4.61,4.61,0,0,1-3.15-1.29L121.66,41.37V168.81a3.35,3.35,0,0,1-1.15,2.75A4.87,4.87,0,0,1,117.36,173Z"/><rect class="cls-1" x="113.05" y="27.03" width="8.51" height="145.94" rx="4.25" ry="4.25"/><path class="cls-1" d="M81.07,172.61,34.39,126.7a5,5,0,0,1-1.4-3.26,4.41,4.41,0,0,1,4.3-4.17,4.32,4.32,0,0,1,3.14,1.41L78.6,158.86V31.46c0-1.82.49-2.53,1-3a4.22,4.22,0,0,1,3.28-1.29,3.26,3.26,0,0,1,2.76,1,4.87,4.87,0,0,1,1.42,3.41V164.45h-.26v4.31L85,172.22l0,0-2.77.6Z"/><rect class="cls-1" x="78.57" y="27.03" width="8.51" height="145.94" rx="4.25" ry="4.25"/></svg>