<svg id="图层_1" data-name="图层 1" xmlns="http://www.w3.org/2000/svg" viewBox="0 0 200 200"><defs><style>.cls-1{fill:#65e7ff;}</style></defs><title>补充图标2021.10</title><path class="cls-1" d="M100,175a75,75,0,1,1,75-75,75.22,75.22,0,0,1-75,75Zm0-9.38A65.62,65.62,0,1,0,34.35,100,65.22,65.22,0,0,0,100,165.62ZM85.92,62.5a4.43,4.43,0,0,1,4.69,4.69v65.62a4.69,4.69,0,0,1-9.38,0V67.19a4.43,4.43,0,0,1,4.69-4.69Zm28.13,0a4.43,4.43,0,0,1,4.69,4.69v65.62a4.69,4.69,0,1,1-9.37,0V67.19A4.43,4.43,0,0,1,114,62.5Zm0,0"/></svg>