<svg id="图层_1" data-name="图层 1" xmlns="http://www.w3.org/2000/svg" viewBox="0 0 200 200"><defs><style>.cls-1{fill:#65e7ff;}</style></defs><title>补充图标2021.10</title><path class="cls-1" d="M88.51,115.79,86.61,112q-2.25-4.64-4.39-9.33l-1.43-3.07-.54-1.22a4.09,4.09,0,0,1,.85-4.61,4,4,0,0,1,4.58-.69c.2,0,.63.28,1.15.59l3,1.56q4.63,2.45,9.23,4.94l1.3.72a68.32,68.32,0,0,1,13,8.23,11.9,11.9,0,0,1,3.25,9,11.71,11.71,0,0,1-4.4,8.42,13.14,13.14,0,0,1-17.72-.73,49.75,49.75,0,0,1-6-10Z"/><path class="cls-1" d="M149.73,163.29a4.25,4.25,0,0,1-1-.12,4.12,4.12,0,0,1-3.06-3.05,4,4,0,0,1,1.36-4,64.63,64.63,0,0,0,19.57-46,66.61,66.61,0,0,0-133.23,0,64.59,64.59,0,0,0,19.5,46,4,4,0,0,1,0,5.75,4.23,4.23,0,0,1-6,0,71.9,71.9,0,0,1-16.12-80A75.29,75.29,0,0,1,175,110.06a72.6,72.6,0,0,1-22,51.74A4.3,4.3,0,0,1,149.73,163.29Z"/><path class="cls-1" d="M29.21,120.08a4.09,4.09,0,1,1,0-8.19H40.1a4.09,4.09,0,1,1,0,8.19Z"/><path class="cls-1" d="M159.89,120.08a4.09,4.09,0,1,1,0-8.19h10.89a4.09,4.09,0,0,1,0,8.19Z"/><path class="cls-1" d="M56.44,71.81a4.27,4.27,0,0,1-3-1.21L48,65.24a4.06,4.06,0,0,1,0-5.83,4.29,4.29,0,0,1,6,0l5.44,5.36a4.06,4.06,0,0,1,0,5.83A4.27,4.27,0,0,1,56.44,71.81Z"/><path class="cls-1" d="M149.85,163a4.27,4.27,0,0,1-3-1.21l-5.44-5.36a4.06,4.06,0,0,1,0-5.83,4.29,4.29,0,0,1,6,0l5.44,5.36a4.06,4.06,0,0,1,0,5.83A4.27,4.27,0,0,1,149.85,163Z"/><path class="cls-1" d="M143.56,71.84a4.27,4.27,0,0,1-3-1.21,4.06,4.06,0,0,1,0-5.82L146,59.44a4.29,4.29,0,0,1,6,0,4.06,4.06,0,0,1,0,5.82l-5.45,5.37A4.26,4.26,0,0,1,143.56,71.84Z"/><path class="cls-1" d="M50.3,163a4.27,4.27,0,0,1-3-1.21,4.06,4.06,0,0,1,0-5.82l5.45-5.37a4.29,4.29,0,0,1,6,0,4.06,4.06,0,0,1,0,5.82l-5.45,5.37A4.26,4.26,0,0,1,50.3,163Z"/><path class="cls-1" d="M100,55.88a4.16,4.16,0,0,1-4.18-4V41.16a4.18,4.18,0,0,1,8.35,0V51.89A4.15,4.15,0,0,1,100,55.88Z"/></svg>