<?xml version="1.0" encoding="utf-8"?>
<!-- Generator: Adobe Illustrator 24.3.0, SVG Export Plug-In . SVG Version: 6.00 Build 0)  -->
<svg version="1.1" id="图层_1" xmlns="http://www.w3.org/2000/svg" xmlns:xlink="http://www.w3.org/1999/xlink" x="0px" y="0px"
	 viewBox="0 0 200 200" style="enable-background:new 0 0 200 200;" xml:space="preserve">
<style type="text/css">
	.st0{fill:none;stroke:#65E7FF;stroke-width:7;stroke-linecap:round;stroke-linejoin:round;}
	.st1{fill:#65E7FF;}
</style>
<path class="st0" d="M100,82.4c-16.5,0-29.8,13.3-29.8,29.8s13.3,29.8,29.8,29.8s29.8-13.3,29.8-29.8l0,0
	C129.8,95.7,116.5,82.4,100,82.4z"/>
<path class="st1" d="M29.4,180.7C15.9,180.7,5,169.7,5,156.2V68c0-13.5,10.9-24.4,24.4-24.4h4.1l1.6-14.3c0.6-5.7,5.4-9.9,11.1-9.9
	h24.2c5.7,0,10.5,4.3,11.1,9.9l1.6,14.3h87.5c13.5,0,24.4,10.9,24.4,24.4v88.2c0,13.5-10.9,24.4-24.4,24.4H29.4z M29.4,54.9
	c-7.2,0-13.1,5.9-13.1,13.1v88.2c0,7.2,5.8,13.1,13.1,13.2c0,0,0,0,0,0h141.1c7.2,0,13.1-5.9,13.1-13.1V68.1
	c0-7.2-5.8-13.1-13.1-13.2c0,0,0,0,0,0L29.4,54.9z M44.9,43.6h26.8l-1.4-13h-24L44.9,43.6z"/>
</svg>
