<svg id="图层_1" data-name="图层 1" xmlns="http://www.w3.org/2000/svg" viewBox="0 0 200 200"><defs><style>.cls-1{fill:#65e7ff;}</style></defs><title>补充图标2021.10</title><path class="cls-1" d="M153.85,165.34a7.27,7.27,0,0,1-7.36-6.24l-.24-2H29.58a4.58,4.58,0,1,1,0-9.17H146.13l.34-1.92a7.48,7.48,0,0,1,7.38-6.37,7.27,7.27,0,0,1,7.36,6.24l.24,2h9a4.58,4.58,0,1,1,0,9.17h-8.85l-.34,1.92A7.48,7.48,0,0,1,153.85,165.34ZM98.62,112.87a7.27,7.27,0,0,1-7.36-6.23l-.24-2H29.58a4.58,4.58,0,1,1,0-9.17H90.9l.34-1.92a7.48,7.48,0,0,1,7.38-6.37A7.27,7.27,0,0,1,106,93.37l.24,2h64.19a4.58,4.58,0,1,1,0,9.17H106.34L106,106.5A7.48,7.48,0,0,1,98.62,112.87ZM46.15,60.4a7.27,7.27,0,0,1-7.36-6.24l-.24-2h-9a4.58,4.58,0,1,1,0-9.17h8.85L38.77,41a7.48,7.48,0,0,1,7.38-6.37,7.27,7.27,0,0,1,7.36,6.24l.24,2H170.42a4.58,4.58,0,1,1,0,9.17H53.87L53.53,54A7.48,7.48,0,0,1,46.15,60.4Z"/></svg>