<svg id="图层_1" data-name="图层 1" xmlns="http://www.w3.org/2000/svg" viewBox="0 0 200 200"><defs><style>.cls-1{fill:#65e7ff;}.cls-2{fill:none;stroke:#65e7ff;stroke-linecap:round;stroke-linejoin:round;stroke-width:7px;}</style></defs><title>补充图标2021.10</title><path class="cls-1" d="M175,73.39c0,20-10.92,31.05-31.11,31.61H56.25l-1.8,0C41,105.56,35,112.11,35,126.21c0,14.72,6.52,21.25,21.26,21.29H133l.9.08a5,5,0,0,1-.9,9.92H56.25l-2.06,0c-19-.79-29.19-11.71-29.19-31.25C25,106,36,95,56.25,95h87.5l1.87-.09C159,94,165,87.29,165,73.39c0-14.49-6.5-20.89-21.25-20.89H67l-.9-.08A5,5,0,0,1,67,42.5h76.75l2.06,0C164.74,43.26,175,54,175,73.39Zm0,0"/><path class="cls-2" d="M30,47.5A17.5,17.5,0,1,0,47.5,30,17.5,17.5,0,0,0,30,47.5Zm0,0"/><path class="cls-2" d="M135,152.5A17.5,17.5,0,1,0,152.5,135,17.5,17.5,0,0,0,135,152.5Zm0,0"/></svg>