<svg id="图层_1" data-name="图层 1" xmlns="http://www.w3.org/2000/svg" viewBox="0 0 200 200"><defs><style>.cls-1{fill:#65e7ff;}.cls-2{fill:none;stroke:#65e7ff;stroke-linecap:round;stroke-linejoin:round;stroke-width:7px;}</style></defs><title>补充图标2021.10</title><path class="cls-1" d="M100.92,175l-2,0c-39.7-1.07-72.88-34.25-74-74V100A74.52,74.52,0,0,1,98.55,25v74.5l1.95,1.95H175C173.76,142.71,141.28,175,100.92,175ZM88.81,34.1C53,40.81,28.54,74.14,33,110c4.33,28.18,25.8,50.09,54.68,55.86A68.08,68.08,0,0,0,99.87,167c32.38,0,60.14-23.47,66-55.8l.31-1.72H91.42a3.47,3.47,0,0,1-.88-1.82V33.78Z"/><path class="cls-2" d="M117.1,29.07a76.6,76.6,0,0,1,53.83,54.6"/></svg>