<svg id="图层_1" data-name="图层 1" xmlns="http://www.w3.org/2000/svg" viewBox="0 0 200 200"><defs><style>.cls-1{fill:#65e7ff;}.cls-2{fill:none;stroke:#65e7ff;stroke-linecap:round;stroke-linejoin:round;stroke-width:8px;}</style></defs><title>补充图标2021.10</title><path class="cls-1" d="M108.76,126.52a3,3,0,0,1-2.47-2L95.93,85.68,88,113.75a2.45,2.45,0,0,1-2.22,2,2.69,2.69,0,0,1-2.47-1.7L75.46,92.48l-5.92,9.64a2,2,0,0,1-1.73,1.13H40.93c-1.48,0-2.47-1.13-2.47-2.84s1-2.84,2.47-2.84H66.58l7.65-12.76a2,2,0,0,1,2.22-1.13,2.22,2.22,0,0,1,2,1.7l7.15,19.28L94,75.47a2.5,2.5,0,0,1,2.47-2,2.45,2.45,0,0,1,2.22,2l10.11,38,6.91-28.08a2.45,2.45,0,0,1,2.22-2,2.69,2.69,0,0,1,2.47,1.7l8.63,25h30.09c1.48,0,2.47,1.13,2.47,2.84s-1,2.84-2.47,2.84H127.25A2.18,2.18,0,0,1,125,114l-6.66-19-7.15,29.49a2.73,2.73,0,0,1-2.47,2Zm0,0"/><ellipse class="cls-2" cx="100" cy="100" rx="71" ry="70.79"/></svg>