<?xml version="1.0" encoding="utf-8"?>
<!-- Generator: Adobe Illustrator 24.3.0, SVG Export Plug-In . SVG Version: 6.00 Build 0)  -->
<svg version="1.1" id="图层_1" xmlns="http://www.w3.org/2000/svg" xmlns:xlink="http://www.w3.org/1999/xlink" x="0px" y="0px"
	 viewBox="0 0 200 200" style="enable-background:new 0 0 200 200;" xml:space="preserve">
<style type="text/css">
	.st0{fill:#65E7FF;}
</style>
<path class="st0" d="M178.8,152c-3.3,18-24.1,32-41.2,26.6c-18.8-5.8-32.4-44.4-29.3-55.3c3.4-12.2,13.2-8,13.2-8
	c7.1,2.3,23.7,23.4,39.9,21.2C170.7,135.1,180.2,144,178.8,152z"/>
<path class="st0" d="M87,101.8c-1-7.1,3.9-13.7,11.1-14.7c7.1-1,13.7,3.9,14.7,11.1c1,7.1-3.9,13.7-11.1,14.7
	C94.6,113.8,88,108.9,87,101.8z"/>
<path class="st0" d="M152,21.2c18,3.3,32,24.1,26.6,41.2c-5.8,18.8-44.4,32.4-55.3,29.3c-12.2-3.4-8-13.2-8-13.2
	c2.3-7.1,23.4-23.7,21.2-39.9C135.1,29.4,144,19.8,152,21.2z"/>
<path class="st0" d="M21.2,47.9c3.3-18,24.1-32,41.2-26.6c18.8,5.8,32.4,44.4,29.3,55.3c-3.4,12.2-13.2,8-13.2,8
	c-7.1-2.3-23.7-23.4-39.9-21.2C29.3,64.7,19.8,55.8,21.2,47.9z"/>
<path class="st0" d="M47.8,178.7c-18-3.3-32-24.1-26.6-41.2c5.8-18.8,44.4-32.4,55.3-29.3c12.2,3.4,8,13.2,8,13.2
	c-2.3,7.1-23.4,23.7-21.2,39.9C64.6,170.6,55.8,180.1,47.8,178.7z"/>
</svg>
