<svg id="图层_1" data-name="图层 1" xmlns="http://www.w3.org/2000/svg" viewBox="0 0 200 200"><defs><style>.cls-1{fill:#65e7ff;}.cls-2{font-size:70px;font-family:Alibaba-PuHuiTi-M, Alibaba PuHuiTi;}</style></defs><title>补充图标2021.10.07</title><path class="cls-1" d="M49.12,89.39v53.07a6,6,0,0,0,3,5.2l46,26.54a6,6,0,0,0,6,0l46-26.54a6,6,0,0,0,3-5.2V89.39a6,6,0,0,0-3-5.2l-46-26.54a6,6,0,0,0-6,0l-46,26.54A6,6,0,0,0,49.12,89.39Z"/><path class="cls-1" d="M81.09,50.93a2.4,2.4,0,0,1,.72-1.78l17.49-17.5a2.55,2.55,0,0,1,3.56,0l17.5,17.5a2.39,2.39,0,0,1,.72,1.78,2.51,2.51,0,0,1-4.28,1.78L103.59,39.46v39a2.5,2.5,0,0,1-5,0v-39L85.36,52.71a2.49,2.49,0,0,1-4.28-1.78Zm0,0"/><path class="cls-1" d="M54,165.88a2.4,2.4,0,0,1-1.88.39l-24.29-4.73a2.55,2.55,0,0,1-2-2.95l4.74-24.29a2.39,2.39,0,0,1,1.07-1.59,2.51,2.51,0,0,1,3.86,2.55l-3.6,18.37,32.32-21.77A2.5,2.5,0,0,1,67,136L34.7,157.78l18.37,3.57a2.49,2.49,0,0,1,.91,4.54Zm0,0"/><path class="cls-1" d="M146,165.89a2.51,2.51,0,0,1,.91-4.54l18.37-3.57L133,136a2.5,2.5,0,1,1,2.79-4.15l32.32,21.77-3.6-18.37a2.49,2.49,0,0,1,3.86-2.55,2.39,2.39,0,0,1,1.07,1.59l4.74,24.29a2.55,2.55,0,0,1-2,2.95l-24.29,4.73a2.4,2.4,0,0,1-1.88-.39Zm0,0"/><text class="cls-2" transform="translate(77.57 138.06)">Z</text></svg>