<?xml version="1.0" standalone="no"?><!DOCTYPE svg PUBLIC "-//W3C//DTD SVG 1.1//EN" "http://www.w3.org/Graphics/SVG/1.1/DTD/svg11.dtd"><svg class="icon" width="200px" height="200.00px" viewBox="0 0 1024 1024" version="1.1" xmlns="http://www.w3.org/2000/svg"><path d="M511.83232 114.5408a395.54432 395.54432 0 0 1 281.29024 116.32 397.824 397.824 0 0 1 0 562.26304l-2.83648 2.176a394.07488 394.07488 0 0 1-278.45376 114.176 398.09536 398.09536 0 0 1-281.26208-116.352c-72.096-72.12544-116.02944-171.53536-116.02944-281.61536a395.2192 395.2192 0 0 1 116.02944-280.6528l2.51776-2.176a395.20512 395.20512 0 0 1 278.74432-114.13888z m218.5728 178.432a307.84896 307.84896 0 0 0-218.5728-90.32832c-84.6272 0-160.83328 34.20928-216.66304 88.448l-2.19904 2.20032c-55.51232 55.80032-90.624 133.248-90.624 218.22464a309.48864 309.48864 0 0 0 90.624 218.89152c56.11904 55.82976 133.568 90.93632 218.86208 90.93632a308.40064 308.40064 0 0 0 216.6912-89.05472l1.8816-1.8816c56.46592-55.80032 90.93632-132.96128 90.93632-218.89152a305.92 305.92 0 0 0-90.93632-218.22464v-0.31872z m-58.624 247.712L481.824 730.15552a39.74784 39.74784 0 1 1-56.28416-56.1408l161.8176-161.408-161.8176-161.408a39.74784 39.74784 0 1 1 56.28416-56.1408l189.96096 189.48352a39.62752 39.62752 0 0 1 0 56.1408z" fill="#8bc34a" /></svg>