<?xml version="1.0" standalone="no"?><!DOCTYPE svg PUBLIC "-//W3C//DTD SVG 1.1//EN" "http://www.w3.org/Graphics/SVG/1.1/DTD/svg11.dtd"><svg class="icon" width="200px" height="200.00px" viewBox="0 0 1024 1024" version="1.1" xmlns="http://www.w3.org/2000/svg"><path d="M379.995429 687.926857h264.429714c59.995429 0 91.721143-35.145143 91.721143-91.721143v-75.849143h162.413714c35.584 0 63.872-20.992 63.872-53.997714 0-20.150857-10.294857-36.004571-29.568-52.717714L565.138286 89.234286c-17.554286-15.433143-33.846857-25.709714-53.138286-25.709715-18.852571 0-35.145143 10.276571-52.717714 25.709715L91.136 414.061714c-20.132571 17.590857-29.568 32.146286-29.568 52.297143 0 33.005714 28.288 53.997714 64.292571 53.997714h162.011429v75.849143c0 56.576 32.128 91.721143 92.123429 91.721143z m-18.432 272.566857h297.874285c49.28 0 77.568-27.428571 77.568-77.129143v-61.714285c0-49.737143-28.288-78.006857-77.586285-78.006857H361.563429c-49.700571 0-77.988571 28.708571-77.988572 78.006857v61.714285c0 49.28 28.288 77.129143 77.988572 77.129143z" fill="#F3A23C" /></svg>