<svg id="图层_1" data-name="图层 1" xmlns="http://www.w3.org/2000/svg" viewBox="0 0 200 200"><defs><style>.cls-1{fill:#65e7ff;}</style></defs><title>补充图标2021.10.07</title><path class="cls-1" d="M169.77,113.78a5.37,5.37,0,0,0-6.69-3.56l-19.67,6L111.64,99.34l31.69-17L163,88.21A5.36,5.36,0,0,0,166.11,78l-9.44-2.84,7.48-4a5.36,5.36,0,1,0-5.08-9.44l-7.48,4,2.84-9.44a5.36,5.36,0,1,0-10.26-3.08l-5.92,19.7L105.64,90.4v-37l14.55-14.55a5.36,5.36,0,0,0-7.58-7.58l-7,7V29.73a5.36,5.36,0,1,0-10.71,0v8.49l-7-7a5.36,5.36,0,1,0-7.58,7.58L94.93,53.37V90.45L62.19,73l-6-19.67A5.36,5.36,0,0,0,45.93,56.5l2.88,9.43-7.5-4a5.36,5.36,0,0,0-5,9.46l7.5,4-9.42,2.88a5.36,5.36,0,1,0,3.13,10.25l19.67-6L88.93,99.4l-31.69,17-19.7-5.92a5.36,5.36,0,1,0-3.08,10.26l9.44,2.84-7.48,4a5.36,5.36,0,0,0,5.08,9.44l7.48-4-2.84,9.44a5.36,5.36,0,0,0,10.26,3.08l5.92-19.7,32.61-17.54v37L80.38,159.91A5.36,5.36,0,1,0,88,167.48l7-7V169a5.36,5.36,0,1,0,10.71,0v-8.49l7,7a5.36,5.36,0,0,0,7.58-7.58l-14.55-14.55V108.28l32.74,17.41,6,19.67a5.36,5.36,0,1,0,10.25-3.13l-2.88-9.43,7.5,4a5.36,5.36,0,1,0,5-9.46l-7.5-4,9.42-2.88a5.37,5.37,0,0,0,3.56-6.69Zm0,0"/></svg>