<?xml version="1.0" standalone="no"?><!DOCTYPE svg PUBLIC "-//W3C//DTD SVG 1.1//EN" "http://www.w3.org/Graphics/SVG/1.1/DTD/svg11.dtd"><svg class="icon" width="200px" height="200.00px" viewBox="0 0 1024 1024" version="1.1" xmlns="http://www.w3.org/2000/svg"><path d="M855.872 106.432a42.464 42.464 0 0 1-42.464 42.464H203.44a42.464 42.464 0 0 1 0-84.928h609.968a42.464 42.464 0 0 1 42.464 42.464z m-344.048 157.92a42.464 42.464 0 0 0-42.464 42.464v609.968a42.464 42.464 0 0 0 84.928 0V306.816a42.464 42.464 0 0 0-42.464-42.464z m30.144-31.328c-16.592-16.576-42.528-17.536-57.92-2.128L171.232 543.68c-15.408 15.408-14.448 41.344 2.128 57.92 16.592 16.592 42.512 17.536 57.92 2.128l312.8-312.784c15.392-15.408 14.448-41.344-2.128-57.92z m-60.272 0c-16.576 16.576-17.536 42.512-2.128 57.92l312.8 312.8c15.392 15.392 41.328 14.448 57.92-2.144 16.576-16.576 17.52-42.512 2.112-57.92L539.616 230.896c-15.408-15.408-41.344-14.448-57.92 2.128z" fill="#999999" /></svg>