<svg id="图层_1" data-name="图层 1" xmlns="http://www.w3.org/2000/svg" viewBox="0 0 200 200"><defs><style>.cls-1{fill:#65e7ff;stroke:#65e7ff;stroke-miterlimit:10;stroke-width:2px;}</style></defs><title>补充图标2021.10.07</title><path class="cls-1" d="M160,89.45c-4.83-11.74-2.76-19.33-2.76-19.33a8.3,8.3,0,0,0-10.36-10.36,34.2,34.2,0,0,0-18.64,16.57V77c-4.83-20,1.38-40,2.07-42.12.69-2.76.69-5.52-1.38-7.59s-4.83-3.45-7.6-2.76c-1.38,0-33.83,4.14-46.95,40.73a114.93,114.93,0,0,0-4.83,24.16c-1.38-6.21-2.76-13.81-2.76-18-.69-3.45-2.76-6.21-6.21-6.9s-6.9,0-8.28,2.76c-1.38.69-15.19,18.64-18,36.59a58.48,58.48,0,0,0,10.36,44.19C55.08,161.94,71,170.92,89.6,173.68a75,75,0,0,0,12.43.69c32.45,0,58-20,62.83-51.09,1.38-13.81.69-21.4-4.83-33.83Zm-2.76,33.14c-4.83,31.07-33.14,49.71-67,44.19C73,164,58.54,156.42,49.56,144c-8.29-11-11-24.86-9-39.35C43.35,88.76,57.15,72.19,57.15,71.5a2.41,2.41,0,0,1,1.38-.69h.69c.69,0,.69.69.69,1.38,0,1.38,1.38,11.74,4.83,18.64a34.53,34.53,0,0,0,7.59,11,3,3,0,0,0,3.45.69,3.8,3.8,0,0,0,2.07-3.45A76.06,76.06,0,0,1,82,66.66c11.74-32.45,40-35.9,41.43-36.59.69,0,.69,0,1.38.69v1.38c-.69,2.76-9,26.24-2.07,49,.69,2.07,1.38,4.83,2.76,6.9A3.8,3.8,0,0,0,129,90.14c1.38,0,2.76-1.38,3.45-2.76a34.72,34.72,0,0,1,3.45-9C140.69,68,149,65.28,150.36,65.28c.69,0,1.38,0,1.38.69a1,1,0,0,1,0,1.38c0,.69-2.76,10.36,2.76,24.16,4.14,11.74,4.83,18.64,2.76,31.07Zm0,0"/></svg>