<svg 
 xmlns="http://www.w3.org/2000/svg"
 xmlns:xlink="http://www.w3.org/1999/xlink"
 width="102px" height="102px">
<path fill-rule="evenodd"  fill="rgb(190, 245, 255)"
 d="M51.000,102.000 C22.833,102.000 0.000,79.167 0.000,51.000 C0.000,22.833 22.833,0.000 51.000,0.000 C79.167,0.000 102.000,22.833 102.000,51.000 C102.000,79.167 79.167,102.000 51.000,102.000 ZM77.000,48.000 L54.000,48.000 L54.000,25.000 C54.000,23.343 52.657,22.000 51.000,22.000 C49.343,22.000 48.000,23.343 48.000,25.000 L48.000,48.000 L25.000,48.000 C23.343,48.000 22.000,49.343 22.000,51.000 C22.000,52.657 23.343,54.000 25.000,54.000 L48.000,54.000 L48.000,77.000 C48.000,78.657 49.343,80.000 51.000,80.000 C52.657,80.000 54.000,78.657 54.000,77.000 L54.000,54.000 L77.000,54.000 C78.657,54.000 80.000,52.657 80.000,51.000 C80.000,49.343 78.657,48.000 77.000,48.000 Z"/>
</svg>
