<svg xmlns="http://www.w3.org/2000/svg" width="140" height="140" viewBox="0 0 140 140">
  <metadata><?xpacket begin="﻿" id="W5M0MpCehiHzreSzNTczkc9d"?>
<x:xmpmeta xmlns:x="adobe:ns:meta/" x:xmptk="Adobe XMP Core 5.6-c138 79.159824, 2016/09/14-01:09:01        ">
   <rdf:RDF xmlns:rdf="http://www.w3.org/1999/02/22-rdf-syntax-ns#">
      <rdf:Description rdf:about=""/>
   </rdf:RDF>
</x:xmpmeta>
                                                                                                    
                                                                                                    
                                                                                                    
                                                                                                    
                                                                                                    
                                                                                                    
                                                                                                    
                                                                                                    
                                                                                                    
                                                                                                    
                                                                                                    
                                                                                                    
                                                                                                    
                                                                                                    
                                                                                                    
                                                                                                    
                                                                                                    
                                                                                                    
                                                                                                    
                                                                                                    
                           
<?xpacket end="w"?></metadata>
<defs>
    <style>
      .cls-1 {
        fill: #65e7ff;
        fill-rule: evenodd;
      }
    </style>
  </defs>
  <path id="leveling_manual_round" class="cls-1" d="M223,138a70,70,0,1,1-70,70A70,70,0,0,1,223,138Zm0,25a45,45,0,1,1-45,45A45,45,0,0,1,223,163Zm0,9a36,36,0,1,1-36,36A36,36,0,0,1,223,172Zm0,9a27,27,0,1,1-27,27A27,27,0,0,1,223,181Zm0,9a18,18,0,1,1-18,18A18,18,0,0,1,223,190Z" transform="translate(-153 -138)"/>
</svg>
