<?xml version="1.0" encoding="utf-8"?>
<!-- Generator: Adobe Illustrator 24.3.0, SVG Export Plug-In . SVG Version: 6.00 Build 0)  -->
<svg version="1.2" baseProfile="tiny" id="图层_1"
	 xmlns="http://www.w3.org/2000/svg" xmlns:xlink="http://www.w3.org/1999/xlink" x="0px" y="0px" viewBox="0 0 200 200"
	 overflow="visible" xml:space="preserve">
<path fill="#65e7ff" d="M130.1,189.5c-13.8,12.2-38.7,10.3-48.9-4.4c-11.2-16.2,1.8-54.9,11-61.6c10.2-7.5,15.4,1.8,15.4,1.8
	c4.1,6.2,4.3,33.1,18.4,41.3C134.1,171.3,136.2,184.2,130.1,189.5z"/>
<path fill="#65e7ff" d="M162.5,29.1c17.4,5.8,28.3,28.3,20.6,44.5c-8.4,17.8-48.5,25.9-58.8,21.3c-11.6-5.1-6.1-14.2-6.1-14.2
	c3.3-6.7,26.5-20.2,26.6-36.6C144.7,34.8,154.8,26.6,162.5,29.1z"/>
<path fill="#65e7ff" d="M7.4,81.3c-3.7-18,10.4-38.7,28.3-40.1c19.6-1.6,46.6,29.1,47.9,40.3c1.4,12.6-9.2,12.4-9.2,12.4
	c-7.4,0.5-30.8-12.9-45-4.7C21.2,93.9,9,89.3,7.4,81.3z"/>
<path fill="#65e7ff" d="M100,113c-7.2,0-13-5.8-13-13c0-7.2,5.8-13,13-13c7.2,0,13,5.8,13,13C113,107.2,107.2,113,100,113z"/>
</svg>
