<?xml version="1.0" standalone="no"?><!DOCTYPE svg PUBLIC "-//W3C//DTD SVG 1.1//EN" "http://www.w3.org/Graphics/SVG/1.1/DTD/svg11.dtd"><svg class="icon" width="200px" height="200.00px" viewBox="0 0 1024 1024" version="1.1" xmlns="http://www.w3.org/2000/svg"><path d="M798.020608 837.03808C702.111744 844.278784 568.966144 692.134912 562.656256 636.715008 555.558912 574.498816 607.44704 575.834112 607.44704 575.834112 643.662848 573.576192 758.422528 640.24576 827.416576 600.55552 867.323904 577.591296 926.884864 600.81664 935.049216 640.091136 953.56416 729.10848 885.4016 830.47424 798.020608 837.03808ZM625.97632 526.56128C570.023936 501.838848 596.427776 457.990144 596.427776 457.990144 612.163584 425.806848 724.318208 360.384512 724.440064 281.545728 724.503552 235.940864 773.113856 196.352 810.228736 208.799744 894.35648 237.002752 946.67776 345.673728 909.64992 423.878656 869.03808 509.733888 675.810304 548.595712 625.97632 526.56128ZM563.879936 417.69472C515.764224 453.445632 491.630592 409.080832 491.630592 409.080832 472.1408 379.643904 471.576576 251.03872 405.116928 211.890176 366.6688 189.249536 356.94592 127.946752 385.528832 102.275072 450.306048 44.079104 567.482368 53.016576 615.430144 123.508736 668.085248 200.864768 606.747648 385.859584 563.879936 417.69472ZM441.776128 417.043456C448.50176 476.02176 399.31392 474.753024 399.31392 474.753024 364.982272 476.89216 256.198656 413.68576 190.79168 451.305472 152.961024 473.073664 96.500736 451.053568 88.763392 413.821952 71.216128 329.435136 135.83872 233.34912 218.672128 227.131392 309.590016 220.273664 435.798016 364.507136 441.776128 417.043456ZM381.746176 521.460736C434.784256 544.900096 409.752576 586.46528 409.752576 586.46528 394.83392 616.973312 288.512 678.98368 288.392192 753.72032 288.329728 796.951552 242.246656 834.477056 207.064064 822.675456 127.315968 795.935744 77.723648 692.917248 112.828416 618.783744 151.33184 537.399296 334.507008 500.570112 381.746176 521.460736ZM452.81792 517.784576C452.81792 488.203264 476.696576 464.217088 506.180608 464.217088 535.677952 464.217088 559.59552 488.203264 559.59552 517.784576 559.59552 547.366912 535.677952 571.352064 506.180608 571.352064 476.696576 571.352064 452.81792 547.366912 452.81792 517.784576ZM440.604672 624.6656C486.217728 590.778368 509.093888 632.835072 509.093888 632.835072 527.566848 660.74112 528.095232 782.65344 591.094784 819.769344 627.539968 841.233408 636.75392 899.346432 609.657856 923.680768 548.247552 978.844672 437.169152 970.365952 391.72096 903.538688 341.810176 830.205952 399.966208 654.840832 440.604672 624.6656Z" fill="#65e7ff" /></svg>