<svg id="图层_1" data-name="图层 1" xmlns="http://www.w3.org/2000/svg" viewBox="0 0 200 200"><defs><style>.cls-1,.cls-3,.cls-4,.cls-6,.cls-7{fill:none;}.cls-1,.cls-3,.cls-5,.cls-6,.cls-7{stroke:#65e7ff;}.cls-1,.cls-3,.cls-7{stroke-linecap:round;stroke-linejoin:round;}.cls-1,.cls-6{stroke-width:6px;}.cls-2,.cls-5{fill:#65e7ff;}.cls-3{stroke-width:7px;}.cls-5,.cls-6{stroke-miterlimit:10;}.cls-5{stroke-width:2px;}.cls-7{stroke-width:5px;}</style></defs><title>补充图标2021.10.07</title><line class="cls-1" x1="35.98" y1="177.16" x2="170.71" y2="177.16"/><rect class="cls-2" x="72.44" y="160.39" width="5.83" height="11.18" rx="2.91" ry="2.91"/><rect class="cls-2" x="86.26" y="160.39" width="5.83" height="11.18" rx="2.91" ry="2.91"/><rect class="cls-2" x="100.85" y="160.39" width="5.83" height="11.18" rx="2.91" ry="2.91"/><rect class="cls-2" x="113.96" y="160.39" width="5.83" height="11.18" rx="2.91" ry="2.91"/><rect class="cls-2" x="128.42" y="160.39" width="5.83" height="11.18" rx="2.91" ry="2.91"/><path class="cls-3" d="M117.23,27.16V76.84a13.88,13.88,0,0,1-13.88,13.88h0a13.88,13.88,0,0,0-13.88,13.88v48.9"/><path class="cls-4" d="M132.32,108.7l0,0a6,6,0,0,1,.61,7.53,5.92,5.92,0,0,1-4.91,2.63c0,.17,0,.33,0,.5h0c0,.69,0,1.38,0,2.06l.28,0a10.36,10.36,0,0,1,1.28.21,5.51,5.51,0,0,1,2.73,1.67,5.93,5.93,0,0,1,1.48,2.86,6,6,0,0,1-1.58,5.45c.61.63,1.19,1.23,1.79,1.82a5.86,5.86,0,0,1,2-1.3,6,6,0,0,1,2.12-.4h.09a6,6,0,0,1,5.21,3.1,5.75,5.75,0,0,1,.76,2.8.4.4,0,0,0,0,.13l.39,0c.66,0,1.31,0,2,0h.18s0-.08,0-.15a1.46,1.46,0,0,1,0-.2,5.72,5.72,0,0,1,1.47-3.52,6,6,0,0,1,8.76-.33l.06-.05c.58-.56,1.19-1.15,1.74-1.75a6.43,6.43,0,0,1-1.26-2l-.08-.24a5.21,5.21,0,0,1-.2-.67,6.11,6.11,0,0,1,.38-3.78,6,6,0,0,1,2.84-3,6,6,0,0,1,2.59-.62c0-.87,0-1.7,0-2.54a6,6,0,0,1-2.9-.81,5.91,5.91,0,0,1-2.35-2.48,6.07,6.07,0,0,1-.65-2.18,5.94,5.94,0,0,1,.44-2.92,5.61,5.61,0,0,1,1.26-1.89l0,0c-.08-.09-.16-.19-.24-.28l-.11-.11c-.47-.46-.93-.92-1.41-1.37l0,0a6.07,6.07,0,0,1-2.92,1.54,5.81,5.81,0,0,1-4.2-.63,6,6,0,0,1-3.08-5.19c-.83,0-1.63,0-2.44,0h-.13s0,.07,0,.12a5.39,5.39,0,0,1-.72,2.67,5.86,5.86,0,0,1-3.77,2.93,6,6,0,0,1-3.74-.21,5.66,5.66,0,0,1-2-1.31l0,0v0c-.6.59-1.19,1.17-1.77,1.76Z"/><path class="cls-5" d="M145.7,140.64c-.66,0-1.31-.05-1.92-.11a2.18,2.18,0,0,1-.8-.22,2.66,2.66,0,0,1-1.53-2.46,3.13,3.13,0,0,0-.8-2.15,3.23,3.23,0,0,0-2.45-1.11,3.18,3.18,0,0,0-1.91.62l-.33.27a3.05,3.05,0,0,1-1.11.71,3.12,3.12,0,0,1-.92.15,2.34,2.34,0,0,1-1.55-.58c-.51-.44-1-.94-1.43-1.37l-.56-.56-.37-.39-.25-.31-.43-1,.06-.09v-.24a2.7,2.7,0,0,1,.82-2,3.18,3.18,0,0,0,.58-.79,3.08,3.08,0,0,0-.06-3.06,3.14,3.14,0,0,0-2.83-1.66,2.55,2.55,0,0,1-1.59-.54l-.4-.35-.23-.21-.48-1.17,0-.16v-.05c0-.3,0-.63,0-1s0-.81,0-1.22h2.62c0,.47,0,.93,0,1.39v.65l.64.08a8.5,8.5,0,0,1,1.05.18,5.33,5.33,0,0,1,2.64,1.62,5.75,5.75,0,0,1,1.44,2.78,5.91,5.91,0,0,1-.24,3.25,5.64,5.64,0,0,1-1,1.68l-.42.51.46.47,1.06,1.08.47.47.51-.43a5.48,5.48,0,0,1,1.6-.93,5.81,5.81,0,0,1,7.2,2.62,5.69,5.69,0,0,1,.72,2.31l.05.67h2.86l.06-.67a5.53,5.53,0,0,1,1.41-3.27,5.83,5.83,0,0,1,2.78-1.76,5.92,5.92,0,0,1,1.64-.24,6,6,0,0,1,2.09.38,5.5,5.5,0,0,1,1.63,1l.51.42.47-.46c.38-.36.74-.72,1.08-1.07l.45-.47-.41-.51a6.57,6.57,0,0,1-.92-1.55l-.08-.23a5.07,5.07,0,0,1-.19-.64,5.93,5.93,0,0,1,.37-3.67,5.86,5.86,0,0,1,2.75-2.87,5.46,5.46,0,0,1,2-.57l.65-.06v-.66c0-.51,0-1,0-1.5v-.66l-.66-.07a5.86,5.86,0,0,1-2.33-.76,5.73,5.73,0,0,1-2.28-2.4,5.9,5.9,0,0,1-.63-2.12,5.76,5.76,0,0,1,.42-2.83,5.65,5.65,0,0,1,.9-1.49l.44-.52-.48-.48-1.07-1.05-.47-.45-.5.41a5.71,5.71,0,0,1-2.49,1.2,6.61,6.61,0,0,1-1.31.14,5.43,5.43,0,0,1-2.77-.74,5.72,5.72,0,0,1-3-4.57l-.07-.65h-2.85l-.05.67a5.4,5.4,0,0,1-.69,2.21,5.69,5.69,0,0,1-3.66,2.84,5.84,5.84,0,0,1-1.51.2,5.94,5.94,0,0,1-2.12-.4l-.27-.1a9.41,9.41,0,0,1-1.58-.7l0,0v-3.12a2.47,2.47,0,0,1,1.72.75,3.33,3.33,0,0,0,1.25.79,3.38,3.38,0,0,0,1.17.22,3,3,0,0,0,1.76-.58,3.23,3.23,0,0,0,1.42-2.79,2.35,2.35,0,0,1,.44-1.37,5.24,5.24,0,0,1,.42-.48c.08-.07.3-.25.4-.31A3.85,3.85,0,0,1,144,100l.23,0c.42,0,.88-.06,1.34-.06a17.39,17.39,0,0,1,1.83.1,2.59,2.59,0,0,1,2.26,2.16,4.87,4.87,0,0,1,.07.66,3,3,0,0,0,.08.67,3.27,3.27,0,0,0,3.15,2.42,3.25,3.25,0,0,0,2.31-1,2.73,2.73,0,0,1,1.92-.79,2.24,2.24,0,0,1,1.42.48,21.17,21.17,0,0,1,1.58,1.45l.49.48c.17.17.33.35.49.53l.28.36.33.81,0,.1,0,.19a2.21,2.21,0,0,1-.22,1.33,5.5,5.5,0,0,1-.74,1,3.2,3.2,0,0,0-.24,3.94,3.12,3.12,0,0,0,2.71,1.43,2.37,2.37,0,0,1,1.46.46,5.77,5.77,0,0,1,.55.49l.32.37.32.87v.22a18.52,18.52,0,0,1,0,3.45,2.61,2.61,0,0,1-2.56,2.26,3.15,3.15,0,0,0-2.32.87,3.28,3.28,0,0,0-1,2.36,3.13,3.13,0,0,0,.94,2.28,2.69,2.69,0,0,1,.29,3.46,22.32,22.32,0,0,1-1.54,1.66,5.12,5.12,0,0,1-1.68,1.25,2.37,2.37,0,0,1-.88.16,2.66,2.66,0,0,1-1.89-.75,3.17,3.17,0,0,0-1.34-.84,3.56,3.56,0,0,0-1.08-.18,3.07,3.07,0,0,0-1.8.6,3.18,3.18,0,0,0-1.37,2.7,2.55,2.55,0,0,1-2.24,2.57A9.71,9.71,0,0,1,145.7,140.64Z"/><circle class="cls-6" cx="145.32" cy="121.07" r="6.77"/><path class="cls-7" d="M134.93,105.83s-8.39-5.07-8.39,4.05v41.49"/><polyline class="cls-7" points="135.21 144.84 126.54 153.51 117.87 144.84"/><path class="cls-4" d="M74.37,72l0,0a6,6,0,0,1-.61-7.53,5.92,5.92,0,0,1,4.91-2.63c0-.17,0-.33,0-.5h0c0-.69,0-1.38,0-2.06l-.28,0A10.36,10.36,0,0,1,77.08,59a5.51,5.51,0,0,1-2.73-1.67,5.93,5.93,0,0,1-1.48-2.86A6,6,0,0,1,74.45,49c-.61-.63-1.19-1.23-1.79-1.82a5.86,5.86,0,0,1-2,1.3,6,6,0,0,1-2.12.4h-.09a6,6,0,0,1-5.21-3.1,5.75,5.75,0,0,1-.76-2.8.4.4,0,0,0,0-.13l-.39,0c-.66,0-1.31,0-2,0H59.9s0,.08,0,.15a1.46,1.46,0,0,1,0,.2,5.72,5.72,0,0,1-1.47,3.52,6,6,0,0,1-8.76.33l-.06.05c-.58.56-1.19,1.15-1.74,1.75a6.43,6.43,0,0,1,1.26,2l.08.24a5.21,5.21,0,0,1,.2.67A6.11,6.11,0,0,1,49,55.51a6,6,0,0,1-2.84,3,6,6,0,0,1-2.59.62c0,.87,0,1.7,0,2.54a6,6,0,0,1,2.9.81,5.91,5.91,0,0,1,2.35,2.48,6.07,6.07,0,0,1,.65,2.18A5.94,5.94,0,0,1,49,70a5.61,5.61,0,0,1-1.26,1.89l0,0c.08.09.16.19.24.28l.11.11c.47.46.93.92,1.41,1.37l0,0a6.07,6.07,0,0,1,2.92-1.54,5.81,5.81,0,0,1,4.2.63A6,6,0,0,1,59.78,78c.83,0,1.63,0,2.44,0h.13s0-.07,0-.12a5.39,5.39,0,0,1,.72-2.67,5.86,5.86,0,0,1,3.77-2.93,6,6,0,0,1,3.74.21,5.66,5.66,0,0,1,2,1.31l0,0v0c.6-.59,1.19-1.17,1.77-1.76Z"/><path class="cls-5" d="M61.13,80.81a17.4,17.4,0,0,1-1.83-.1A2.59,2.59,0,0,1,57,78.55a4.83,4.83,0,0,1-.07-.66,3,3,0,0,0-.08-.67,3.26,3.26,0,0,0-3.15-2.42,3.24,3.24,0,0,0-2.31,1,2.73,2.73,0,0,1-1.92.79,2.25,2.25,0,0,1-1.42-.48,21.39,21.39,0,0,1-1.59-1.46L46,74.13c-.17-.17-.33-.35-.49-.53l-.28-.36-.33-.81,0-.1,0-.19a2.2,2.2,0,0,1,.22-1.33,5.46,5.46,0,0,1,.74-1,3.2,3.2,0,0,0,.24-3.94,3.12,3.12,0,0,0-2.71-1.43A2.38,2.38,0,0,1,42,63.95a5.73,5.73,0,0,1-.55-.49l-.32-.37-.32-.87V62a18.43,18.43,0,0,1,0-3.45A2.61,2.61,0,0,1,43.4,56.3a3.15,3.15,0,0,0,2.32-.87,3.27,3.27,0,0,0,1-2.36,3.13,3.13,0,0,0-.94-2.28,2.69,2.69,0,0,1-.29-3.46,22.08,22.08,0,0,1,1.54-1.66,5.12,5.12,0,0,1,1.68-1.25,2.37,2.37,0,0,1,.88-.16,2.66,2.66,0,0,1,1.89.75,3.18,3.18,0,0,0,1.34.84,3.56,3.56,0,0,0,1.08.18,3.07,3.07,0,0,0,1.8-.6,3.17,3.17,0,0,0,1.37-2.7,2.56,2.56,0,0,1,2.24-2.57A9.7,9.7,0,0,1,61,40c.66,0,1.31.05,1.92.11a2.19,2.19,0,0,1,.8.22,2.66,2.66,0,0,1,1.53,2.46A3.13,3.13,0,0,0,66,45a3.23,3.23,0,0,0,2.44,1.11,3.18,3.18,0,0,0,1.91-.62l.34-.28a3,3,0,0,1,1.1-.7,3.12,3.12,0,0,1,.92-.15,2.34,2.34,0,0,1,1.55.58c.51.44,1,.91,1.43,1.37l.56.56.37.39.25.31.43,1-.06.09v.24a2.7,2.7,0,0,1-.82,2,3.19,3.19,0,0,0-.58.79,3.08,3.08,0,0,0,.06,3.06,3.14,3.14,0,0,0,2.83,1.66,2.55,2.55,0,0,1,1.59.54l.4.35.23.21.48,1.17,0,.16v.05c0,.3,0,.63,0,1s0,.81,0,1.22H78.81c0-.47,0-.93,0-1.39V59L78.17,59a8.6,8.6,0,0,1-1.05-.18,5.34,5.34,0,0,1-2.64-1.62A5.75,5.75,0,0,1,73,54.39a5.92,5.92,0,0,1,.24-3.25,5.67,5.67,0,0,1,1-1.68l.42-.51-.46-.47-1.06-1.08-.47-.47-.51.43a5.46,5.46,0,0,1-1.6.93,5.81,5.81,0,0,1-7.2-2.62,5.7,5.7,0,0,1-.72-2.31l-.05-.67H59.75l-.06.67a5.53,5.53,0,0,1-1.41,3.27,5.83,5.83,0,0,1-2.78,1.76,5.92,5.92,0,0,1-1.64.24,6,6,0,0,1-2.1-.38,5.5,5.5,0,0,1-1.63-1l-.51-.42-.47.46c-.38.36-.74.72-1.08,1.07l-.45.47.41.5A6.57,6.57,0,0,1,49,50.9l.08.23a5.06,5.06,0,0,1,.19.64,5.94,5.94,0,0,1-.37,3.67A5.87,5.87,0,0,1,46.1,58.3a5.46,5.46,0,0,1-2,.57l-.65.06v.66c0,.51,0,1,0,1.5v.67l.66.07a5.87,5.87,0,0,1,2.33.76A5.73,5.73,0,0,1,48.66,65a5.9,5.9,0,0,1,.63,2.12,5.76,5.76,0,0,1-.42,2.83,5.65,5.65,0,0,1-.9,1.49l-.44.52.48.48,1.07,1.05.47.45.5-.41a5.71,5.71,0,0,1,2.49-1.2,6.6,6.6,0,0,1,1.31-.14,5.43,5.43,0,0,1,2.77.74,5.66,5.66,0,0,1,3,4.57l.07.65h2.85l.05-.67a5.39,5.39,0,0,1,.69-2.21,5.69,5.69,0,0,1,3.66-2.84,5.85,5.85,0,0,1,1.51-.2,5.94,5.94,0,0,1,2.12.4l.27.1a9.43,9.43,0,0,1,1.58.7l0,0v3.12a2.47,2.47,0,0,1-1.72-.75A3.34,3.34,0,0,0,69.45,75a3.4,3.4,0,0,0-1.17-.22,3,3,0,0,0-1.76.58,3.23,3.23,0,0,0-1.42,2.79,2.35,2.35,0,0,1-.44,1.37,5.33,5.33,0,0,1-.42.48c-.08.07-.3.25-.4.31a3.83,3.83,0,0,1-1.13.36l-.23,0C62.06,80.79,61.6,80.81,61.13,80.81Z"/><path class="cls-7" d="M71.76,74.84s8.39,5.07,8.39-4.05V29.29"/><circle class="cls-6" cx="61.37" cy="59.6" r="6.77"/><polyline class="cls-7" points="71.48 35.83 80.15 27.16 88.82 35.83"/></svg>