<?xml version="1.0" encoding="utf-8"?>
<!-- Generator: Adobe Illustrator 24.3.0, SVG Export Plug-In . SVG Version: 6.00 Build 0)  -->
<svg version="1.1" id="图层_1" xmlns="http://www.w3.org/2000/svg" xmlns:xlink="http://www.w3.org/1999/xlink" x="0px" y="0px"
	 viewBox="0 0 200 200" style="enable-background:new 0 0 200 200;" xml:space="preserve">
<style type="text/css">
	.st0{fill:#65E7FF;stroke:#65E7FF;stroke-width:3;stroke-miterlimit:10;}
</style>
<path class="st0" d="M174.6,77.4c-1.1-7-3.6-13.8-7.4-19.8c-3.5-5.8-8.4-10.6-14.2-14c-14.8-7.6-27.7-5.3-39.2,6.9
	c-3.5,4-6.4,8.4-8.7,13.2c-2.6,5.3-4.1,11-4.6,16.8c0,0.8-0.2,1.3-0.8,1.3c-0.9,0-1.6-0.5-2-1.3c-1.3-3.2-1.8-6.7-1.5-10.2
	c0-4.4,1-8.8,3-12.7c4.8-8.7,4.6-16.5-1-23.7c-5.1-6.8-12.2-9.7-20.9-8.7c-7.1,1-13.8,3.6-19.8,7.4c-6.6,4.1-11.2,8.7-14,14.2
	c-7.6,14.8-5.3,28,6.9,39.2c4,3.5,8.5,6.5,13.2,8.9c5.3,2.5,11,4.1,16.8,4.6c0.8,0,1.3,0.2,1.3,1c0,0.7-0.5,1.4-1.3,1.5
	c-8.1,2.8-15.8,2.3-22.6-1.5h-0.2c-8.7-4.8-16.5-4.3-23.7,1c-6.9,5.3-9.7,12.2-8.4,20.9c1.1,7,3.6,13.8,7.4,19.8
	c4.1,6.6,8.9,11.2,14.5,14c14.8,7.9,27.7,5.6,38.9-6.6c3.6-3.6,6.4-8.1,8.9-13.2c2.6-5.2,4.2-10.9,4.6-16.8c0-0.8,0.2-1.3,1-1.3
	c0.7,0,1.4,0.5,1.5,1.3c2.8,8.1,2.3,15.8-1.5,22.9c-4.8,8.6-4.3,16.5,1,23.7c5.3,6.9,12.2,9.7,20.9,8.6c7-1.1,13.8-3.6,19.8-7.4
	c6.6-4.1,11.2-8.9,14-14.2c7.9-14.8,5.6-27.7-6.6-39.2c-4-3.6-8.4-6.6-13.2-8.9c-5.3-2.5-11-4.1-16.8-4.6c-0.8,0-1.3-0.2-1.3-0.8
	c0-0.8,0.5-1.5,1.3-1.8c3.3-1.2,6.7-1.8,10.2-1.8c4.4,0,8.7,1.2,12.5,3.3c8.6,4.8,16.5,4.6,23.9-1C172.8,92.9,175.6,86,174.6,77.4
	 M150.4,47.9c4.8,2.5,8.9,6.6,12.5,12.2c3.5,5.4,5.8,11.5,6.6,17.8c1.1,6.2-1.3,12.5-6.4,16.3c-5.6,4.1-11.7,4.3-18.3,0.5
	c-4.6-2.5-9.8-3.9-15-3.8c-4.1,0-8.1,0.7-12,2c-3.3,1.3-4.8,3.6-4.6,6.6c0,3.6,2,5.6,6.4,5.6c5.2,0.3,10.2,1.7,14.8,4.1
	c4.4,2,8.4,4.7,12,7.9c10.4,9.4,12.2,20.6,5.6,33.1c-2.8,5.1-7.1,9.4-12.2,12.2c-5.4,3.5-11.4,5.8-17.8,6.6c-6.6,1-12.2-1.3-16-6.4
	c-4.1-5.6-4.3-11.7-0.8-18.3v0.2c4.8-8.4,5.3-17.3,2-27.2c-1.3-3.3-3.3-4.8-6.6-4.6c-3.6,0-5.6,2-5.6,6.4
	c-0.3,5.2-1.7,10.2-4.1,14.8c-2,4.4-4.7,8.4-7.9,12c-9.4,10.4-20.6,12.2-33.1,5.6c-5.1-2.8-9.4-7.1-12.2-12.2
	c-3.5-5.4-5.8-11.4-6.6-17.8c-1.1-6.2,1.3-12.5,6.4-16.3c5.6-4.1,11.7-4.3,18.3-0.8c8.4,4.8,17.3,5.3,26.7,2
	c3.3-1.3,4.8-3.3,4.6-6.6c0-3.6-2-5.6-6.4-5.6c-5.1-0.4-10.1-1.6-14.7-3.8c-4.4-2.1-8.6-4.9-12.2-8.1c-10.2-9.4-12.2-20.3-5.6-33.1
	c2.9-5.1,7.1-9.3,12.2-12.2c5.4-3.4,11.5-5.6,17.8-6.6c6.6-1,12,1.3,16,6.6c4.1,5.6,4.3,11.7,0.5,18.3c-2.5,4.6-3.9,9.8-3.8,15
	c-0.1,4.2,0.6,8.3,2,12.2c1.3,3.3,3.6,4.9,6.9,4.6c3.6,0,5.6-2,5.6-6.4c0.3-5.1,1.7-10.2,4.1-14.8c2.1-4.3,4.7-8.4,7.6-12.2
	C127,43.3,138,41.5,150.4,47.9 M109.7,100c0-2.6-1-5.2-2.8-7.1c-1.7-2-4.3-3-6.9-2.8c-2.6,0-5.2,1-7.1,2.8c-1.9,1.9-3,4.4-3,7.1
	c0,2.7,1.1,5.3,3.1,7.1c1.9,1.8,4.5,2.8,7.1,2.8c2.5,0,4.9-1,6.6-2.8h0.2C108.7,105.2,109.7,102.7,109.7,100 M103.4,96.5
	c1,0.9,1.5,2.2,1.3,3.6c0.1,2.4-1.7,4.5-4.1,4.6c-0.2,0-0.3,0-0.5,0c-1.3,0-2.5-0.5-3.6-1.3c-0.8-0.9-1.2-2.1-1.3-3.3
	c0-1.3,0.5-2.5,1.3-3.6c0.9-1,2.2-1.5,3.6-1.3C101.3,95.1,102.5,95.6,103.4,96.5L103.4,96.5z"/>
</svg>
