<?xml version="1.0" encoding="utf-8"?>
<!-- Generator: Adobe Illustrator 24.3.0, SVG Export Plug-In . SVG Version: 6.00 Build 0)  -->
<svg version="1.1" id="图层_1" xmlns="http://www.w3.org/2000/svg" xmlns:xlink="http://www.w3.org/1999/xlink" x="0px" y="0px"
	 viewBox="0 0 1422 50" style="enable-background:new 0 0 1422 50;" xml:space="preserve">
<style type="text/css">
	.st0{fill:none;stroke:#65E7FF;stroke-miterlimit:10;}
	.st1{fill:none;stroke:url(#SVGID_1_);stroke-miterlimit:10;}
	.st2{fill:none;stroke:url(#SVGID_2_);stroke-miterlimit:10;}
	.st3{fill:url(#SVGID_3_);}
	.st4{fill:none;stroke:url(#SVGID_4_);stroke-miterlimit:10;}
	.st5{fill:none;stroke:url(#SVGID_5_);stroke-miterlimit:10;}
	.st6{fill:url(#SVGID_6_);}
</style>
<polyline class="st0" points="513.8,50 543.2,12.5 584.3,12.5 584.3,33.4 835.4,33.4 835.4,12.5 876.6,12.5 906.2,50 "/>
<polyline class="st0" points="522.1,50 547.3,18.5 872.6,18.5 897.6,50 "/>
<linearGradient id="SVGID_1_" gradientUnits="userSpaceOnUse" x1="70" y1="33.55" x2="538.59" y2="33.55" gradientTransform="matrix(1 0 0 -1 0 52)">
	<stop  offset="0" style="stop-color:#65E7FF;stop-opacity:0"/>
	<stop  offset="1" style="stop-color:#65E7FF"/>
</linearGradient>
<line class="st1" x1="538.6" y1="18.5" x2="70" y2="18.5"/>
<linearGradient id="SVGID_2_" gradientUnits="userSpaceOnUse" x1="70" y1="23.9152" x2="490.1362" y2="23.9152" gradientTransform="matrix(1 0 0 -1 0 52)">
	<stop  offset="0" style="stop-color:#65E7FF;stop-opacity:0"/>
	<stop  offset="1" style="stop-color:#65E7FF"/>
</linearGradient>
<polyline class="st2" points="489.8,18.5 480.4,28.5 466.2,28.5 457.2,37.6 70,37.6 "/>
<polyline class="st0" points="518.1,44.5 505.9,44.5 497.1,35.5 482.8,35.5 476,28.5 "/>
<polygon class="st0" points="533.1,25.5 511.5,25.5 507.5,31 511.4,36.5 524.4,36.5 "/>
<linearGradient id="SVGID_3_" gradientUnits="userSpaceOnUse" x1="533.09" y1="21.035" x2="507.46" y2="21.035" gradientTransform="matrix(1 0 0 -1 0 52)">
	<stop  offset="0" style="stop-color:#65E7FF;stop-opacity:0"/>
	<stop  offset="1" style="stop-color:#65E7FF"/>
</linearGradient>
<polygon class="st3" points="533.1,25.5 511.5,25.5 507.5,31 511.4,36.5 524.4,36.5 "/>
<linearGradient id="SVGID_4_" gradientUnits="userSpaceOnUse" x1="2741.4897" y1="33.55" x2="3210.0698" y2="33.55" gradientTransform="matrix(-1 0 0 -1 4091.3999 52)">
	<stop  offset="0" style="stop-color:#65E7FF;stop-opacity:0"/>
	<stop  offset="1" style="stop-color:#65E7FF"/>
</linearGradient>
<line class="st4" x1="881.3" y1="18.5" x2="1349.9" y2="18.5"/>
<linearGradient id="SVGID_5_" gradientUnits="userSpaceOnUse" x1="2741.4897" y1="23.9153" x2="3161.626" y2="23.9153" gradientTransform="matrix(-1 0 0 -1 4091.3999 52)">
	<stop  offset="0" style="stop-color:#65E7FF;stop-opacity:0"/>
	<stop  offset="1" style="stop-color:#65E7FF"/>
</linearGradient>
<polyline class="st5" points="930.1,18.5 939.5,28.5 953.7,28.5 962.7,37.6 1349.9,37.6 "/>
<polyline class="st0" points="901.8,44.5 914.1,44.5 922.8,35.5 937.1,35.5 943.9,28.5 "/>
<polygon class="st0" points="886.8,25.5 908.4,25.5 912.5,31 908.5,36.5 895.5,36.5 "/>
<linearGradient id="SVGID_6_" gradientUnits="userSpaceOnUse" x1="3204.5698" y1="21.035" x2="3178.95" y2="21.035" gradientTransform="matrix(-1 0 0 -1 4091.3999 52)">
	<stop  offset="0" style="stop-color:#65E7FF;stop-opacity:0"/>
	<stop  offset="1" style="stop-color:#65E7FF"/>
</linearGradient>
<polygon class="st6" points="886.8,25.5 908.4,25.5 912.5,31 908.5,36.5 895.5,36.5 "/>
</svg>
