<svg id="图层_1" data-name="图层 1" xmlns="http://www.w3.org/2000/svg" viewBox="0 0 200 200"><defs><style>.cls-1{fill:#65e7ff;stroke-width:4px;}.cls-1,.cls-2,.cls-3{stroke:#65e7ff;}.cls-1,.cls-2{stroke-miterlimit:10;}.cls-2,.cls-3{fill:none;}.cls-2{stroke-width:8px;}.cls-3{stroke-linecap:round;stroke-linejoin:round;stroke-width:7px;}</style></defs><title>补充图标2021.10.07</title><path class="cls-1" d="M93.81,109.22a3,3,0,0,1-.92-.15,26.28,26.28,0,0,1-3.84-1.59,3,3,0,0,1-1.4-3.82,4.79,4.79,0,0,0-6.29-6.28,2.94,2.94,0,0,1-1.15.23A3,3,0,0,1,77.55,96,26.23,26.23,0,0,1,76,92.16a3,3,0,0,1,1.71-3.69,4.79,4.79,0,0,0,0-8.89,3,3,0,0,1-1.72-3.69A26.27,26.27,0,0,1,77.53,72a3,3,0,0,1,1.65-1.45,3,3,0,0,1,2.18.06,4.79,4.79,0,0,0,6.26-6.3A3,3,0,0,1,89,60.54a26.24,26.24,0,0,1,3.84-1.6,3,3,0,0,1,3.69,1.71,4.77,4.77,0,0,0,4.44,3h0a4.77,4.77,0,0,0,4.44-3,3,3,0,0,1,3.69-1.72A26.27,26.27,0,0,1,113,60.51a3,3,0,0,1,1.4,3.82,4.79,4.79,0,0,0,6.28,6.28A3,3,0,0,1,124.48,72a26.28,26.28,0,0,1,1.6,3.84,3,3,0,0,1-1.71,3.7,4.77,4.77,0,0,0-3,4.45v0a4.77,4.77,0,0,0,3,4.44,3,3,0,0,1,1.71,3.69A26.27,26.27,0,0,1,124.5,96a3,3,0,0,1-3.82,1.4,4.77,4.77,0,0,0-5.24,1l0,0a4.77,4.77,0,0,0-1,5.26,3,3,0,0,1-1.4,3.82,26.27,26.27,0,0,1-3.84,1.59,3,3,0,0,1-3.69-1.71,4.77,4.77,0,0,0-4.44-3h0a4.77,4.77,0,0,0-4.44,3,3,3,0,0,1-2.77,1.86ZM83.24,94.61a7.19,7.19,0,0,1,6.63,10,.59.59,0,0,0,.28.75,23.85,23.85,0,0,0,3.49,1.44.59.59,0,0,0,.73-.33A7.19,7.19,0,0,1,101,102h0a7.19,7.19,0,0,1,6.66,4.49.59.59,0,0,0,.73.33,23.89,23.89,0,0,0,3.49-1.45.59.59,0,0,0,.28-.75,7.19,7.19,0,0,1,1.52-7.87l0,0a7.19,7.19,0,0,1,7.89-1.54.59.59,0,0,0,.75-.28,23.87,23.87,0,0,0,1.45-3.49.59.59,0,0,0-.33-.73A7.19,7.19,0,0,1,119,84v0a7.19,7.19,0,0,1,4.48-6.67.59.59,0,0,0,.33-.73,23.85,23.85,0,0,0-1.45-3.49.6.6,0,0,0-.77-.27,7.19,7.19,0,0,1-9.42-9.42.59.59,0,0,0-.28-.75,23.92,23.92,0,0,0-3.49-1.44.59.59,0,0,0-.73.33A7.19,7.19,0,0,1,101,66h0a7.19,7.19,0,0,1-6.66-4.49.59.59,0,0,0-.73-.33,23.88,23.88,0,0,0-3.49,1.45.59.59,0,0,0-.28.75,7.19,7.19,0,0,1-6.61,10h0a7.15,7.15,0,0,1-2.78-.56.6.6,0,0,0-.77.27,23.89,23.89,0,0,0-1.44,3.49.59.59,0,0,0,.33.73,7.19,7.19,0,0,1,0,13.33.59.59,0,0,0-.33.73,23.87,23.87,0,0,0,1.45,3.48.59.59,0,0,0,.75.28,7.17,7.17,0,0,1,2.81-.57ZM101,91.19A7.19,7.19,0,1,1,108.21,84,7.19,7.19,0,0,1,101,91.19Zm0-12A4.79,4.79,0,1,0,105.81,84,4.79,4.79,0,0,0,101,79.21Zm0,0"/><path class="cls-2" d="M148.3,80.57a47.18,47.18,0,1,0-80.07,33.81l32.89,39.3L134,114.39A47,47,0,0,0,148.3,80.57Z"/><line class="cls-3" x1="25" y1="165.91" x2="175" y2="165.91"/><line class="cls-3" x1="25" y1="179.77" x2="175" y2="179.77"/></svg>