<svg id="图层_1" data-name="图层 1" xmlns="http://www.w3.org/2000/svg" viewBox="0 0 200 200"><defs><style>.cls-1{fill:#65e7ff;}</style></defs><title>补充图标2021.10.07</title><path class="cls-1" d="M100.53,61.37a38,38,0,1,0,38,38,38.22,38.22,0,0,0-38-38Zm0,66.08a28.08,28.08,0,1,1,28.08-28.08,28.06,28.06,0,0,1-28.08,28.08Zm0,0"/><path class="cls-1" d="M171.9,111.92A14.56,14.56,0,0,1,165,99.37c0-5.29,2.64-9.58,6.94-12.55a8.3,8.3,0,0,0,3.3-9.25A84.36,84.36,0,0,0,168.6,61.7a8,8,0,0,0-8.92-4,14.7,14.7,0,0,1-17.51-17.51,9,9,0,0,0-4-8.92,73.26,73.26,0,0,0-15.86-6.61,8.48,8.48,0,0,0-9.25,3.3,14.56,14.56,0,0,1-12.56,6.94c-5.29,0-9.58-2.64-12.55-6.94a8.3,8.3,0,0,0-9.25-3.3A84.34,84.34,0,0,0,62.87,31.3a8,8,0,0,0-4,8.92c1,5-.33,10.24-4,13.55a14.71,14.71,0,0,1-13.55,4,9,9,0,0,0-8.92,4,73.28,73.28,0,0,0-6.61,15.86,8.48,8.48,0,0,0,3.3,9.25A14.56,14.56,0,0,1,36.1,99.37c0,5.29-2.64,9.58-6.94,12.56a8.3,8.3,0,0,0-3.3,9.25A84.35,84.35,0,0,0,32.47,137a8.47,8.47,0,0,0,8.92,4c5-1,10.24.33,13.55,4a14.71,14.71,0,0,1,4,13.55,9,9,0,0,0,4,8.92A73.29,73.29,0,0,0,78.72,174a8.48,8.48,0,0,0,9.25-3.3,14.56,14.56,0,0,1,12.55-6.94c5.29,0,9.58,2.64,12.56,6.94a8.62,8.62,0,0,0,6.94,3.63,5.62,5.62,0,0,0,2.31-.33,84.38,84.38,0,0,0,15.86-6.61,8,8,0,0,0,4-8.92c-1-5,.33-10.24,4-13.55a14.71,14.71,0,0,1,13.55-4,9,9,0,0,0,8.92-4,73.27,73.27,0,0,0,6.61-15.86,8.3,8.3,0,0,0-3.3-9.25Zm-11.56,19.16a24.78,24.78,0,0,0-28.42,28.41,71.64,71.64,0,0,1-11.56,5,25,25,0,0,0-40.31,0,71.66,71.66,0,0,1-11.56-5,24.78,24.78,0,0,0-28.41-28.41,71.72,71.72,0,0,1-5-11.56,25,25,0,0,0,0-40.31,71.73,71.73,0,0,1,5-11.56A24.77,24.77,0,0,0,68.48,39.23a71.75,71.75,0,0,1,11.56-5,24.95,24.95,0,0,0,40.31,0,71.73,71.73,0,0,1,11.56,5,24.77,24.77,0,0,0,28.42,28.41,71.76,71.76,0,0,1,5,11.56,25,25,0,0,0,0,40.31,71.75,71.75,0,0,1-5,11.56Zm0,0"/></svg>