<svg id="图层_1" data-name="图层 1" xmlns="http://www.w3.org/2000/svg" viewBox="0 0 200 200"><defs><style>.cls-1{fill:none;stroke:#65e7ff;stroke-linecap:round;stroke-linejoin:round;stroke-width:8px;}</style></defs><title>补充图标2021.10.07</title><path class="cls-1" d="M62.33,28.11l-6,15.17A29.26,29.26,0,0,0,57.45,67.5l9.63,18.73a29.26,29.26,0,0,1,.37,26l-7.61,15.89"/><path class="cls-1" d="M99.49,28.11l-6,15.17A29.26,29.26,0,0,0,94.61,67.5l9.63,18.73a29.26,29.26,0,0,1,.37,26L97,128.13"/><path class="cls-1" d="M136.66,28.11l-6,15.17a29.26,29.26,0,0,0,1.16,24.22l9.63,18.73a29.26,29.26,0,0,1,.37,26l-7.61,15.89"/><line class="cls-1" x1="25.91" y1="151.6" x2="172.94" y2="151.6"/><line class="cls-1" x1="25.91" y1="178.11" x2="172.94" y2="178.11"/></svg>