<?xml version="1.0" encoding="utf-8"?>
<!-- Generator: Adobe Illustrator 24.3.0, SVG Export Plug-In . SVG Version: 6.00 Build 0)  -->
<svg version="1.1" id="图层_1" xmlns="http://www.w3.org/2000/svg" xmlns:xlink="http://www.w3.org/1999/xlink" x="0px" y="0px"
	 viewBox="0 0 200 200" style="enable-background:new 0 0 200 200;" xml:space="preserve">
<style type="text/css">
	.st0{fill:#65E7FF;}
</style>
<path class="st0" d="M63.7,103.5c-2.7,3.8-6.7,7.8-9.9,9.1c0,0-1.2,0.7-1.9-0.4c-0.5-1.1-0.5-2.3,0.1-3.4c3-3.5,4.9-7.8,5.2-12.4
	c0.3-7.2-5.6-13.9-6.6-15.5c-3-4.4-4.5-9.6-4.4-14.9c0.2-7.2,3.8-13.9,9.7-18c0.7-0.5,1.7-0.5,2.3,0.1c1.1,1.1,0.3,3.4,0.3,3.4
	s-3.4,6.8-2.9,12.5c0.5,5.7,5.2,8.2,7.1,11.1c1.9,2.9,5,7.9,5,13.6C67.7,93.9,66.2,100,63.7,103.5L63.7,103.5z"/>
<path class="st0" d="M106.8,103.5c-2.7,3.8-6.7,7.8-9.9,9.1c0,0-1.2,0.7-1.9-0.4c-0.5-1.1-0.5-2.3,0.1-3.4c3-3.4,4.9-7.8,5.2-12.4
	c0.3-7.2-5.6-13.9-6.6-15.5c-3-4.4-4.5-9.6-4.4-14.9c0.2-7.2,3.8-13.9,9.7-18c0.7-0.5,1.7-0.5,2.3,0.1c1.1,1.1,0.3,3.4,0.3,3.4
	s-3.4,6.8-2.9,12.5s5.2,8.2,7.1,11c1.9,2.9,5,7.9,5,13.6C110.8,93.9,109.3,99.9,106.8,103.5L106.8,103.5z"/>
<path class="st0" d="M149.9,103.5c-2.7,3.8-6.7,7.8-9.9,9.1c0,0-1.2,0.7-1.9-0.4c-0.5-1.1-0.5-2.3,0.1-3.4c3-3.4,4.9-7.8,5.2-12.4
	c0.3-7.2-5.6-13.9-6.6-15.5c-3-4.4-4.5-9.6-4.4-14.9c0.2-7.2,3.8-13.9,9.7-18c0.7-0.5,1.7-0.5,2.3,0.1c1.1,1.1,0.3,3.4,0.3,3.4
	s-3.4,6.8-2.9,12.5s5.2,8.2,7.1,11c1.9,2.9,5,7.9,5,13.6C153.8,93.9,152.3,99.9,149.9,103.5L149.9,103.5z"/>
<polygon class="st0" points="200,164.8 0,164.8 46.1,127.9 153.8,127.9 "/>
</svg>
